<svg width="482" height="49" viewBox="0 0 482 49" fill="none" xmlns="http://www.w3.org/2000/svg">
<path d="M24.0625 49V10.5H9.625C6.91797 10.5 4.63704 9.57259 2.78223 7.71777C0.927409 5.81283 0 3.5319 0 0.875H57.75C57.75 3.58203 56.7975 5.86296 54.8926 7.71777C52.9876 9.57259 50.7318 10.5 48.125 10.5H33.6875V49H24.0625ZM115.5 49C112.793 49 110.512 48.0726 108.657 46.2178C106.802 44.3128 105.875 42.0319 105.875 39.375H163.625C163.625 42.082 162.673 44.363 160.768 46.2178C158.863 48.0726 156.607 49 154 49H115.5ZM105.875 29.75V0.875H115.5V29.75H105.875ZM154 29.75V0.875H163.625V29.75H154ZM211.75 49C211.75 46.3431 212.677 44.0872 214.532 42.2324C216.437 40.3275 218.718 39.375 221.375 39.375H259.875V29.75H211.75V0.875H269.5C269.5 3.58203 268.548 5.86296 266.643 7.71777C264.738 9.57259 262.482 10.5 259.875 10.5H221.375V20.125H269.5V49H211.75ZM317.625 49V0.875H327.25V39.375H375.375C375.375 42.082 374.423 44.363 372.518 46.2178C370.613 48.0726 368.357 49 365.75 49H317.625ZM423.5 49V20.125H481.25V49H471.625V29.75H433.125V49H423.5ZM433.125 10.5C430.418 10.5 428.137 9.57259 426.282 7.71777C424.427 5.81283 423.5 3.5319 423.5 0.875H481.25C481.25 3.58203 480.298 5.86296 478.393 7.71777C476.488 9.57259 474.232 10.5 471.625 10.5H433.125Z" fill="black"/>
</svg>
